<?xml version="1.0" encoding="UTF-8"?>
<svg xmlns="http://www.w3.org/2000/svg" version="1.1" width="400" height="400" viewBox="0 0 400 400"><rect x="0" y="0" width="400" height="400" fill="#ffffff"/><g transform="scale(16)"><g transform="translate(0,0)"><path fill-rule="evenodd" d="M8 0.25L8 0.75A0.25 0.25 0 0 0 8.25 1L8.75 1A0.25 0.25 0 0 1 9 1.25L9 1.75A0.25 0.25 0 0 1 8.75 2L8.25 2A0.25 0.25 0 0 0 8 2.25L8 4.75A0.25 0.25 0 0 0 8.25 5L8.75 5A0.25 0.25 0 0 0 9 4.75L9 4.25A0.25 0.25 0 0 1 9.25 4L10.75 4A0.25 0.25 0 0 1 11 4.25L11 4.75A0.25 0.25 0 0 1 10.75 5L10.25 5A0.25 0.25 0 0 0 10 5.25L10 9.75A0.25 0.25 0 0 1 9.75 10L9.25 10A0.25 0.25 0 0 0 9 10.25L9 10.75A0.25 0.25 0 0 1 8.75 11L7.25 11A0.25 0.25 0 0 1 7 10.75L7 10.25A0.25 0.25 0 0 0 6.75 10L5.25 10A0.25 0.25 0 0 1 5 9.75L5 9.25A0.25 0.25 0 0 0 4.75 9L4.25 9A0.25 0.25 0 0 1 4 8.75L4 8.25A0.25 0.25 0 0 0 3.75 8L0.25 8A0.25 0.25 0 0 0 0 8.25L0 11.75A0.25 0.25 0 0 0 0.25 12L0.75 12A0.25 0.25 0 0 0 1 11.75L1 11.25A0.25 0.25 0 0 1 1.25 11L1.75 11A0.25 0.25 0 0 0 2 10.75L2 10.25A0.25 0.25 0 0 1 2.25 10L3.75 10A0.25 0.25 0 0 1 4 10.25L4 10.75A0.25 0.25 0 0 1 3.75 11L3.25 11A0.25 0.25 0 0 0 3 11.25L3 11.75A0.25 0.25 0 0 1 2.75 12L2.25 12A0.25 0.25 0 0 0 2 12.25L2 12.75A0.25 0.25 0 0 0 2.25 13L2.75 13A0.25 0.25 0 0 0 3 12.75L3 12.25A0.25 0.25 0 0 1 3.25 12L3.75 12A0.25 0.25 0 0 0 4 11.75L4 11.25A0.25 0.25 0 0 1 4.25 11L4.75 11A0.25 0.25 0 0 1 5 11.25L5 12.75A0.25 0.25 0 0 1 4.75 13L4.25 13A0.25 0.25 0 0 0 4 13.25L4 13.75A0.25 0.25 0 0 1 3.75 14L1.25 14A0.25 0.25 0 0 0 1 14.25L1 14.75A0.25 0.25 0 0 1 0.75 15L0.25 15A0.25 0.25 0 0 0 0 15.25L0 15.75A0.25 0.25 0 0 0 0.25 16L0.75 16A0.25 0.25 0 0 0 1 15.75L1 15.25A0.25 0.25 0 0 1 1.25 15L6.75 15A0.25 0.25 0 0 1 7 15.25L7 15.75A0.25 0.25 0 0 1 6.75 16L6.25 16A0.25 0.25 0 0 0 6 16.25L6 16.75A0.25 0.25 0 0 0 6.25 17L6.75 17A0.25 0.25 0 0 0 7 16.75L7 16.25A0.25 0.25 0 0 1 7.25 16L7.75 16A0.25 0.25 0 0 0 8 15.75L8 13.25A0.25 0.25 0 0 0 7.75 13L7.25 13A0.25 0.25 0 0 1 7 12.75L7 12.25A0.25 0.25 0 0 1 7.25 12L8.75 12A0.25 0.25 0 0 1 9 12.25L9 13.75A0.25 0.25 0 0 0 9.25 14L9.75 14A0.25 0.25 0 0 0 10 13.75L10 13.25A0.25 0.25 0 0 1 10.25 13L10.75 13A0.25 0.25 0 0 1 11 13.25L11 15.75A0.25 0.25 0 0 1 10.75 16L10.25 16A0.25 0.25 0 0 1 10 15.75L10 15.25A0.25 0.25 0 0 0 9.75 15L9.25 15A0.25 0.25 0 0 0 9 15.25L9 15.75A0.25 0.25 0 0 0 9.25 16L9.75 16A0.25 0.25 0 0 1 10 16.25L10 17.75A0.25 0.25 0 0 0 10.25 18L10.75 18A0.25 0.25 0 0 0 11 17.75L11 16.25A0.25 0.25 0 0 1 11.25 16L11.75 16A0.25 0.25 0 0 1 12 16.25L12 16.75A0.25 0.25 0 0 0 12.25 17L12.75 17A0.25 0.25 0 0 0 13 16.75L13 16.25A0.25 0.25 0 0 0 12.75 16L12.25 16A0.25 0.25 0 0 1 12 15.75L12 14.25A0.25 0.25 0 0 1 12.25 14L12.75 14A0.25 0.25 0 0 1 13 14.25L13 14.75A0.25 0.25 0 0 0 13.25 15L13.75 15A0.25 0.25 0 0 1 14 15.25L14 17.75A0.25 0.25 0 0 1 13.75 18L13.25 18A0.25 0.25 0 0 0 13 18.25L13 20.75A0.25 0.25 0 0 0 13.25 21L14.75 21A0.25 0.25 0 0 1 15 21.25L15 21.75A0.25 0.25 0 0 1 14.75 22L14.25 22A0.25 0.25 0 0 0 14 22.25L14 22.75A0.25 0.25 0 0 1 13.75 23L11.25 23A0.25 0.25 0 0 0 11 23.25L11 24.75A0.25 0.25 0 0 0 11.25 25L11.75 25A0.25 0.25 0 0 0 12 24.75L12 24.25A0.25 0.25 0 0 1 12.25 24L15.75 24A0.25 0.25 0 0 0 16 23.75L16 21.25A0.25 0.25 0 0 1 16.25 21L16.75 21A0.25 0.25 0 0 1 17 21.25L17 22.75A0.25 0.25 0 0 0 17.25 23L17.75 23A0.25 0.25 0 0 1 18 23.25L18 23.75A0.25 0.25 0 0 1 17.75 24L17.25 24A0.25 0.25 0 0 0 17 24.25L17 24.75A0.25 0.25 0 0 0 17.25 25L18.75 25A0.25 0.25 0 0 0 19 24.75L19 23.25A0.25 0.25 0 0 1 19.25 23L19.75 23A0.25 0.25 0 0 1 20 23.25L20 23.75A0.25 0.25 0 0 0 20.25 24L20.75 24A0.25 0.25 0 0 1 21 24.25L21 24.75A0.25 0.25 0 0 0 21.25 25L24.75 25A0.25 0.25 0 0 0 25 24.75L25 24.25A0.25 0.25 0 0 0 24.75 24L23.25 24A0.25 0.25 0 0 1 23 23.75L23 23.25A0.25 0.25 0 0 1 23.25 23L23.75 23A0.25 0.25 0 0 0 24 22.75L24 22.25A0.25 0.25 0 0 1 24.25 22L24.75 22A0.25 0.25 0 0 0 25 21.75L25 21.25A0.25 0.25 0 0 0 24.75 21L23.25 21A0.25 0.25 0 0 0 23 21.25L23 22.75A0.25 0.25 0 0 1 22.75 23L21.25 23A0.25 0.25 0 0 1 21 22.75L21 22.25A0.25 0.25 0 0 1 21.25 22L21.75 22A0.25 0.25 0 0 0 22 21.75L22 21.25A0.25 0.25 0 0 0 21.75 21L21.25 21A0.25 0.25 0 0 1 21 20.75L21 17.25A0.25 0.25 0 0 1 21.25 17L21.75 17A0.25 0.25 0 0 1 22 17.25L22 18.75A0.25 0.25 0 0 0 22.25 19L23.75 19A0.25 0.25 0 0 1 24 19.25L24 19.75A0.25 0.25 0 0 0 24.25 20L24.75 20A0.25 0.25 0 0 0 25 19.75L25 18.25A0.25 0.25 0 0 0 24.75 18L23.25 18A0.25 0.25 0 0 1 23 17.75L23 17.25A0.25 0.25 0 0 1 23.25 17L23.75 17A0.25 0.25 0 0 0 24 16.75L24 16.25A0.25 0.25 0 0 1 24.25 16L24.75 16A0.25 0.25 0 0 0 25 15.75L25 15.25A0.25 0.25 0 0 0 24.75 15L24.25 15A0.25 0.25 0 0 1 24 14.75L24 14.25A0.25 0.25 0 0 1 24.25 14L24.75 14A0.25 0.25 0 0 0 25 13.75L25 11.25A0.25 0.25 0 0 0 24.75 11L20.25 11A0.25 0.25 0 0 0 20 11.25L20 12.75A0.25 0.25 0 0 1 19.75 13L19.25 13A0.25 0.25 0 0 1 19 12.75L19 11.25A0.25 0.25 0 0 0 18.75 11L18.25 11A0.25 0.25 0 0 1 18 10.75L18 8.25A0.25 0.25 0 0 0 17.75 8L15.25 8A0.25 0.25 0 0 0 15 8.25L15 8.75A0.25 0.25 0 0 0 15.25 9L15.75 9A0.25 0.25 0 0 1 16 9.25L16 9.75A0.25 0.25 0 0 0 16.25 10L16.75 10A0.25 0.25 0 0 1 17 10.25L17 11.75A0.25 0.25 0 0 1 16.75 12L14.25 12A0.25 0.25 0 0 0 14 12.25L14 13.75A0.25 0.25 0 0 1 13.75 14L13.25 14A0.25 0.25 0 0 1 13 13.75L13 12.25A0.25 0.25 0 0 0 12.75 12L12.25 12A0.25 0.25 0 0 0 12 12.25L12 12.75A0.25 0.25 0 0 1 11.75 13L11.25 13A0.25 0.25 0 0 1 11 12.75L11 11.25A0.25 0.25 0 0 1 11.25 11L13.75 11A0.25 0.25 0 0 0 14 10.75L14 8.25A0.25 0.25 0 0 0 13.75 8L13.25 8A0.25 0.25 0 0 1 13 7.75L13 6.25A0.25 0.25 0 0 0 12.75 6L12.25 6A0.25 0.25 0 0 1 12 5.75L12 5.25A0.25 0.25 0 0 1 12.25 5L12.75 5A0.25 0.25 0 0 0 13 4.75L13 4.25A0.25 0.25 0 0 1 13.25 4L14.75 4A0.25 0.25 0 0 1 15 4.25L15 4.75A0.25 0.25 0 0 0 15.25 5L16.75 5A0.25 0.25 0 0 0 17 4.75L17 3.25A0.25 0.25 0 0 0 16.75 3L16.25 3A0.25 0.25 0 0 1 16 2.75L16 2.25A0.25 0.25 0 0 0 15.75 2L15.25 2A0.25 0.25 0 0 1 15 1.75L15 1.25A0.25 0.25 0 0 0 14.75 1L14.25 1A0.25 0.25 0 0 0 14 1.25L14 1.75A0.25 0.25 0 0 1 13.75 2L13.25 2A0.25 0.25 0 0 1 13 1.75L13 0.25A0.25 0.25 0 0 0 12.75 0L12.25 0A0.25 0.25 0 0 0 12 0.25L12 0.75A0.25 0.25 0 0 1 11.75 1L11.25 1A0.25 0.25 0 0 1 11 0.75L11 0.25A0.25 0.25 0 0 0 10.75 0L10.25 0A0.25 0.25 0 0 0 10 0.25L10 0.75A0.25 0.25 0 0 1 9.75 1L9.25 1A0.25 0.25 0 0 1 9 0.75L9 0.25A0.25 0.25 0 0 0 8.75 0L8.25 0A0.25 0.25 0 0 0 8 0.25ZM16 0.25L16 0.75A0.25 0.25 0 0 0 16.25 1L16.75 1A0.25 0.25 0 0 0 17 0.75L17 0.25A0.25 0.25 0 0 0 16.75 0L16.25 0A0.25 0.25 0 0 0 16 0.25ZM11 2.25L11 3.75A0.25 0.25 0 0 0 11.25 4L11.75 4A0.25 0.25 0 0 0 12 3.75L12 3.25A0.25 0.25 0 0 1 12.25 3L12.75 3A0.25 0.25 0 0 0 13 2.75L13 2.25A0.25 0.25 0 0 0 12.75 2L11.25 2A0.25 0.25 0 0 0 11 2.25ZM8 6.25L8 6.75A0.25 0.25 0 0 0 8.25 7L8.75 7A0.25 0.25 0 0 0 9 6.75L9 6.25A0.25 0.25 0 0 0 8.75 6L8.25 6A0.25 0.25 0 0 0 8 6.25ZM11 6.25L11 7.75A0.25 0.25 0 0 0 11.25 8L11.75 8A0.25 0.25 0 0 0 12 7.75L12 6.25A0.25 0.25 0 0 0 11.75 6L11.25 6A0.25 0.25 0 0 0 11 6.25ZM14 6.25L14 6.75A0.25 0.25 0 0 0 14.25 7L14.75 7A0.25 0.25 0 0 0 15 6.75L15 6.25A0.25 0.25 0 0 0 14.75 6L14.25 6A0.25 0.25 0 0 0 14 6.25ZM16 6.25L16 6.75A0.25 0.25 0 0 0 16.25 7L16.75 7A0.25 0.25 0 0 0 17 6.75L17 6.25A0.25 0.25 0 0 0 16.75 6L16.25 6A0.25 0.25 0 0 0 16 6.25ZM6 8.25L6 8.75A0.25 0.25 0 0 0 6.25 9L6.75 9A0.25 0.25 0 0 0 7 8.75L7 8.25A0.25 0.25 0 0 0 6.75 8L6.25 8A0.25 0.25 0 0 0 6 8.25ZM8 8.25L8 8.75A0.25 0.25 0 0 0 8.25 9L8.75 9A0.25 0.25 0 0 0 9 8.75L9 8.25A0.25 0.25 0 0 0 8.75 8L8.25 8A0.25 0.25 0 0 0 8 8.25ZM20 8.25L20 8.75A0.25 0.25 0 0 1 19.75 9L19.25 9A0.25 0.25 0 0 0 19 9.25L19 9.75A0.25 0.25 0 0 0 19.25 10L19.75 10A0.25 0.25 0 0 0 20 9.75L20 9.25A0.25 0.25 0 0 1 20.25 9L22.75 9A0.25 0.25 0 0 1 23 9.25L23 9.75A0.25 0.25 0 0 0 23.25 10L23.75 10A0.25 0.25 0 0 0 24 9.75L24 9.25A0.25 0.25 0 0 1 24.25 9L24.75 9A0.25 0.25 0 0 0 25 8.75L25 8.25A0.25 0.25 0 0 0 24.75 8L24.25 8A0.25 0.25 0 0 0 24 8.25L24 8.75A0.25 0.25 0 0 1 23.75 9L23.25 9A0.25 0.25 0 0 1 23 8.75L23 8.25A0.25 0.25 0 0 0 22.75 8L20.25 8A0.25 0.25 0 0 0 20 8.25ZM1 9.25L1 9.75A0.25 0.25 0 0 0 1.25 10L1.75 10A0.25 0.25 0 0 0 2 9.75L2 9.25A0.25 0.25 0 0 0 1.75 9L1.25 9A0.25 0.25 0 0 0 1 9.25ZM11 9.25L11 9.75A0.25 0.25 0 0 0 11.25 10L11.75 10A0.25 0.25 0 0 0 12 9.75L12 9.25A0.25 0.25 0 0 0 11.75 9L11.25 9A0.25 0.25 0 0 0 11 9.25ZM6 11.25L6 11.75A0.25 0.25 0 0 0 6.25 12L6.75 12A0.25 0.25 0 0 0 7 11.75L7 11.25A0.25 0.25 0 0 0 6.75 11L6.25 11A0.25 0.25 0 0 0 6 11.25ZM23 12.25L23 12.75A0.25 0.25 0 0 1 22.75 13L21.25 13A0.25 0.25 0 0 0 21 13.25L21 13.75A0.25 0.25 0 0 0 21.25 14L22.75 14A0.25 0.25 0 0 0 23 13.75L23 13.25A0.25 0.25 0 0 1 23.25 13L23.75 13A0.25 0.25 0 0 0 24 12.75L24 12.25A0.25 0.25 0 0 0 23.75 12L23.25 12A0.25 0.25 0 0 0 23 12.25ZM5 13.25L5 13.75A0.25 0.25 0 0 0 5.25 14L6.75 14A0.25 0.25 0 0 0 7 13.75L7 13.25A0.25 0.25 0 0 0 6.75 13L5.25 13A0.25 0.25 0 0 0 5 13.25ZM17 13.25L17 13.75A0.25 0.25 0 0 1 16.75 14L14.25 14A0.25 0.25 0 0 0 14 14.25L14 14.75A0.25 0.25 0 0 0 14.25 15L16.75 15A0.25 0.25 0 0 1 17 15.25L17 15.75A0.25 0.25 0 0 0 17.25 16L17.75 16A0.25 0.25 0 0 0 18 15.75L18 15.25A0.25 0.25 0 0 1 18.25 15L19.75 15A0.25 0.25 0 0 0 20 14.75L20 14.25A0.25 0.25 0 0 0 19.75 14L18.25 14A0.25 0.25 0 0 1 18 13.75L18 13.25A0.25 0.25 0 0 0 17.75 13L17.25 13A0.25 0.25 0 0 0 17 13.25ZM17 14.25L17 14.75A0.25 0.25 0 0 0 17.25 15L17.75 15A0.25 0.25 0 0 0 18 14.75L18 14.25A0.25 0.25 0 0 0 17.75 14L17.25 14A0.25 0.25 0 0 0 17 14.25ZM21 15.25L21 15.75A0.25 0.25 0 0 0 21.25 16L22.75 16A0.25 0.25 0 0 0 23 15.75L23 15.25A0.25 0.25 0 0 0 22.75 15L21.25 15A0.25 0.25 0 0 0 21 15.25ZM2 16.25L2 16.75A0.25 0.25 0 0 0 2.25 17L2.75 17A0.25 0.25 0 0 0 3 16.75L3 16.25A0.25 0.25 0 0 0 2.75 16L2.25 16A0.25 0.25 0 0 0 2 16.25ZM15 16.25L15 16.75A0.25 0.25 0 0 0 15.25 17L15.75 17A0.25 0.25 0 0 0 16 16.75L16 16.25A0.25 0.25 0 0 0 15.75 16L15.25 16A0.25 0.25 0 0 0 15 16.25ZM8 17.25L8 17.75A0.25 0.25 0 0 0 8.25 18L8.75 18A0.25 0.25 0 0 0 9 17.75L9 17.25A0.25 0.25 0 0 0 8.75 17L8.25 17A0.25 0.25 0 0 0 8 17.25ZM17 17.25L17 19.75A0.25 0.25 0 0 0 17.25 20L19.75 20A0.25 0.25 0 0 0 20 19.75L20 17.25A0.25 0.25 0 0 0 19.75 17L17.25 17A0.25 0.25 0 0 0 17 17.25ZM15 18.25L15 18.75A0.25 0.25 0 0 0 15.25 19L15.75 19A0.25 0.25 0 0 0 16 18.75L16 18.25A0.25 0.25 0 0 0 15.75 18L15.25 18A0.25 0.25 0 0 0 15 18.25ZM18 18.25L18 18.75A0.25 0.25 0 0 0 18.25 19L18.75 19A0.25 0.25 0 0 0 19 18.75L19 18.25A0.25 0.25 0 0 0 18.75 18L18.25 18A0.25 0.25 0 0 0 18 18.25ZM11 19.25L11 19.75A0.25 0.25 0 0 0 11.25 20L11.75 20A0.25 0.25 0 0 0 12 19.75L12 19.25A0.25 0.25 0 0 0 11.75 19L11.25 19A0.25 0.25 0 0 0 11 19.25ZM9 20.25L9 20.75A0.25 0.25 0 0 1 8.75 21L8.25 21A0.25 0.25 0 0 0 8 21.25L8 24.75A0.25 0.25 0 0 0 8.25 25L8.75 25A0.25 0.25 0 0 0 9 24.75L9 24.25A0.25 0.25 0 0 1 9.25 24L9.75 24A0.25 0.25 0 0 0 10 23.75L10 23.25A0.25 0.25 0 0 0 9.75 23L9.25 23A0.25 0.25 0 0 1 9 22.75L9 21.25A0.25 0.25 0 0 1 9.25 21L9.75 21A0.25 0.25 0 0 1 10 21.25L10 21.75A0.25 0.25 0 0 0 10.25 22L10.75 22A0.25 0.25 0 0 0 11 21.75L11 21.25A0.25 0.25 0 0 0 10.75 21L10.25 21A0.25 0.25 0 0 1 10 20.75L10 20.25A0.25 0.25 0 0 0 9.75 20L9.25 20A0.25 0.25 0 0 0 9 20.25ZM15 20.25L15 20.75A0.25 0.25 0 0 0 15.25 21L15.75 21A0.25 0.25 0 0 0 16 20.75L16 20.25A0.25 0.25 0 0 0 15.75 20L15.25 20A0.25 0.25 0 0 0 15 20.25ZM19 21.25L19 21.75A0.25 0.25 0 0 0 19.25 22L19.75 22A0.25 0.25 0 0 0 20 21.75L20 21.25A0.25 0.25 0 0 0 19.75 21L19.25 21A0.25 0.25 0 0 0 19 21.25ZM0 0.25L0 6.75A0.25 0.25 0 0 0 0.25 7L6.75 7A0.25 0.25 0 0 0 7 6.75L7 0.25A0.25 0.25 0 0 0 6.75 0L0.25 0A0.25 0.25 0 0 0 0 0.25ZM1 1.25L1 5.75A0.25 0.25 0 0 0 1.25 6L5.75 6A0.25 0.25 0 0 0 6 5.75L6 1.25A0.25 0.25 0 0 0 5.75 1L1.25 1A0.25 0.25 0 0 0 1 1.25ZM2 2.25L2 4.75A0.25 0.25 0 0 0 2.25 5L4.75 5A0.25 0.25 0 0 0 5 4.75L5 2.25A0.25 0.25 0 0 0 4.75 2L2.25 2A0.25 0.25 0 0 0 2 2.25ZM18 0.25L18 6.75A0.25 0.25 0 0 0 18.25 7L24.75 7A0.25 0.25 0 0 0 25 6.75L25 0.25A0.25 0.25 0 0 0 24.75 0L18.25 0A0.25 0.25 0 0 0 18 0.25ZM19 1.25L19 5.75A0.25 0.25 0 0 0 19.25 6L23.75 6A0.25 0.25 0 0 0 24 5.75L24 1.25A0.25 0.25 0 0 0 23.75 1L19.25 1A0.25 0.25 0 0 0 19 1.25ZM20 2.25L20 4.75A0.25 0.25 0 0 0 20.25 5L22.75 5A0.25 0.25 0 0 0 23 4.75L23 2.25A0.25 0.25 0 0 0 22.75 2L20.25 2A0.25 0.25 0 0 0 20 2.25ZM0 18.25L0 24.75A0.25 0.25 0 0 0 0.25 25L6.75 25A0.25 0.25 0 0 0 7 24.75L7 18.25A0.25 0.25 0 0 0 6.75 18L0.25 18A0.25 0.25 0 0 0 0 18.25ZM1 19.25L1 23.75A0.25 0.25 0 0 0 1.25 24L5.75 24A0.25 0.25 0 0 0 6 23.75L6 19.25A0.25 0.25 0 0 0 5.75 19L1.25 19A0.25 0.25 0 0 0 1 19.25ZM2 20.25L2 22.75A0.25 0.25 0 0 0 2.25 23L4.75 23A0.25 0.25 0 0 0 5 22.75L5 20.25A0.25 0.25 0 0 0 4.75 20L2.25 20A0.25 0.25 0 0 0 2 20.25Z" fill="#000000"/></g></g></svg>
