<?xml version="1.0" encoding="utf-8"?>
<!-- Generator: Adobe Illustrator 26.5.0, SVG Export Plug-In . SVG Version: 6.00 Build 0)  -->
<svg version="1.1" id="Capa_1" xmlns="http://www.w3.org/2000/svg" xmlns:xlink="http://www.w3.org/1999/xlink" x="0px" y="0px"
	 viewBox="0 0 1920 1080" style="enable-background:new 0 0 1920 1080;" xml:space="preserve">
<style type="text/css">
	.st0{fill:#E30139;}
	.st1{fill:#1E272E;}
	.st2{fill:#DD40C0;}
	.st3{fill:#FDBB85;}
	.st4{fill:#F8976E;}
	.st5{fill:#FD0152;}
</style>
<path class="st0" d="M1067.37,1056.31c-9.63,1.66-53.95,8.95-122.23,2.72c-23.3-2.13-59.3-5.59-104.8-18.61
	c-27.45-7.85-81.48-23.81-141.21-64.87c-51.25-35.23-82.14-72.26-98.23-91.8c-32.12-39.02-53.21-76.28-66.82-104.49
	c4.88-8.18,11.99-18.85,21.87-30.29c0.07-0.08,0,0.01,0,0.01c5.79-8.34,15.55-20.39,30.64-31.09c7.86-5.57,16.19-9.42,32.85-17.11
	c23.82-11,35.73-16.51,49.32-18.96c8.62-1.56,22.12-2.99,39.33-0.52c9.12,32.11,14.84,65.22,29.68,95.61
	c14.39,29.48,33,55.34,61.37,78.65c1.4-25.03-5.46-44.62-8.19-64.69c-2.14-15.76,1.05-18.74,16.45-15.43
	c3.81,0.82,7.06,5.47,11.15,1.41c-1.3-6.06-1.96-12.12-3.9-17.74c-9.28-26.88-9.01-50.42,20.97-64.48c1.51-0.71,2.69-2.11,4.02-3.19
	c68.54,33.06,138.61,34.02,209.87,9.98c8.76,4.83,17.53,9.67,25.89,14.29c-15.26,44.19-15.26,44.19-10.11,66.93
	c7.64-8.27,10.68-20.83,24.74-25.7c-6.15,36-22.91,64.95-39.82,95.42c17.31,2.7,29.87-4.05,41.88-12.75
	c18.89-13.67,28.32-31.94,30.12-35.18c14.16-25.62,37.84-72.03,65.57-132.94c20.84,0.33,64.53,3.8,111.15,30.22
	c47.77,27.07,73.42,63.96,84.25,81.81c-1.79,4.96-4.75,12.62-9.18,21.67c-3.63,7.41-5.26,9.68-11.47,21.13
	c-9.14,16.85-8.18,16.67-13.28,25.35c-6.79,11.55-13.13,19.74-17.5,25.35c-6.57,8.42-6.63,7.48-21.73,24.75
	c-13.81,15.79-16.99,20.26-28.97,33.2c-4.29,4.63-7.21,7.8-11.5,12.07c-10.51,10.45-20.12,18.49-29.24,25.96
	c-11.51,9.43-29.2,23.83-55.23,38.93c-11.59,6.72-31.31,17.51-57.04,27.16C1100.49,1049.44,1077.88,1054.49,1067.37,1056.31z"/>
<path class="st1" d="M839.64,691.45c-1.33,1.08-2.51,2.48-4.02,3.19c-29.97,14.05-30.25,37.59-20.97,64.48
	c1.94,5.62,2.6,11.68,3.9,17.74c-4.09,4.05-7.34-0.59-11.15-1.41c-15.4-3.32-18.59-0.33-16.45,15.43
	c2.73,20.07,9.59,39.66,8.19,64.69c-28.38-23.31-46.98-49.17-61.37-78.65c-14.84-30.39-20.56-63.5-29.68-95.61
	c-6.46-76.19-11.88-152.31-7.25-228.96c3.68-60.95,12.45-120.96,24.36-180.73c5.18-25.97,16.02-50.55,18.11-77.18l-0.38,0.39
	c4.12,0.81,4.57-1.91,4.71-4.92c12.51-24.3,21.68-50.24,36.6-73.37c27.9-43.26,64.17-75.69,114.23-91.42
	c1.9-0.6,6.29-1.39,17.47-2.63c11.07-1.23,26.8-2.53,46.29-2.64c11.18,0.85,22.37,1.71,33.55,2.56
	c46.89,3.88,74.14,22.61,86.29,32.62c27.6,22.71,45.19,52.03,60.56,93.77c4.97,13.51,10.92,26.66,16.42,39.98
	c3.08,17.56,9.41,34.18,14.59,51.15c22.66,74.26,34.95,150.45,39.65,227.81c2.56,42.18-0.42,84.26-8.39,125.83
	c-5.3,27.62-11.41,55.09-17.16,82.63c-18.39,44.53-36.75,89.07-65.53,128.28c-9.15,12.47-17.25,25.87-30.12,35.18
	c-12.01,8.7-24.58,15.45-41.88,12.75c16.91-30.47,33.67-59.42,39.82-95.42c-14.07,4.87-17.1,17.42-24.75,25.7
	c-5.15-22.74-5.15-22.74,10.11-66.93c-8.37-4.62-17.13-9.45-25.89-14.29c-12.09-19.01-21.63-39.17-27.52-60.98
	c-3.69-20.8-1.64-41.56,0.47-62.31c35.01-30.86,60.22-68.13,73.85-112.96c18.44-39,21.3-80.95,23.29-123.05
	c0.34-7.11-1.35-13.64-5.98-19.3c-31.59-38.6-66.91-73.23-116.82-85.41c-26.5-6.47-44.61-20.31-59.5-41.55
	c-6.13-8.74-9.14-20.48-21.17-25.11c-16.03,31.93-42.46,53.98-69.42,75.56c-10.65,3.67-18.63,11.88-27.93,17.66
	c-17.09,10.63-30,27.3-40.55,44.14c-14.66,23.4-23.14,49.73-18.57,78.13c2.28,14.16,6.16,28.09,9.78,42
	c14.09,54.14,36.24,104.01,78.12,142.85c6.88,6.38,8.59,13.15,10.46,21.96C865.57,628.75,859.56,661.23,839.64,691.45z"/>
<path class="st2" d="M1159.06,188.75c59.87,24.98,107.7,65.96,149.51,114.32c33.45,38.68,60.21,82.16,78.92,129.6
	c13.17,33.4,19.25,65.55,23.75,87.53c5.98,29.17,6.99,48.32,7.12,51.72c0.02,0.58,0.18,5.02,0.48,11.09
	c0.34,7.04,0.45,7.55,0.73,13.36c0.09,1.79,0.38,8.05,0.57,16.24c0.09,3.77,0.16,6.95,0.17,11.29c0.01,2.5-0.02,4.36,0.02,7.83
	c0.03,3.22,0.08,5.54,0.1,6.88c0.24,14.57-2.47,30.13-4,38.92c-1.98,11.39-4.13,19.75-5.91,26.58c-2.56,12.09-5.28,22.19-7.54,29.88
	c-3.13,10.61-4.91,16.64-8.45,24.75c-1.2,2.73-1.94,4.22-6.64,14.49c-2.57,5.61-4.65,10.22-6.04,13.28
	c-9.6-17.22-25.44-40.3-50.8-61.13c-56.56-46.46-120.92-49.26-143.29-49.19c5.75-27.54,11.86-55.01,17.16-82.63
	c7.97-41.56,10.95-83.65,8.39-125.83c-4.69-77.36-16.99-153.55-39.65-227.81C1168.47,222.93,1162.15,206.32,1159.06,188.75z"/>
<path class="st3" d="M1021.99,640.45c5.89,21.81,15.42,41.97,27.52,60.98c-71.26,24.04-141.33,23.08-209.87-9.98
	c19.92-30.22,25.92-62.7,18.37-98.38c-1.87-8.81-3.58-15.58-10.46-21.96c-41.87-38.84-64.03-88.72-78.12-142.85
	c-3.62-13.91-7.5-27.84-9.78-42c-4.57-28.4,3.91-54.73,18.57-78.13c10.55-16.85,23.46-33.51,40.55-44.14
	c9.3-5.79,17.28-13.99,27.93-17.66c36.58,7.32,73.64,4.36,110.53,5.59c22.3,0.74,44.41,5.08,64.7,15.01
	c30.13,14.73,49.37,38.43,58.64,71.02c11.86,41.7,12.72,84.56,15.72,127.24c-13.63,44.83-38.84,82.1-73.85,112.96
	c-35.75,26.08-75.38,36.13-119.87,27.39c11.31,9.15,23.38,14.39,36.24,13.66C969.02,617.48,996.36,625.19,1021.99,640.45z"/>
<path class="st2" d="M534.09,779.25c-16.49-40.97-24.63-77.32-28.92-104.56c-1.8-11.46-5.98-45.26-5.58-89.74
	c0.84-92.62,30.1-176.12,82.37-251.7c39.13-56.58,89.51-101.26,149.44-135.18c3.92-2.22,7.48-3.9,11.91-3.65
	c-2.09,26.64-12.94,51.21-18.11,77.18c-11.91,59.77-20.68,119.78-24.36,180.73c-4.63,76.65,0.8,152.77,7.25,228.96
	c-21.07,0.15-79.76,3.45-130.75,46.18C556.39,745.03,542.77,764.2,534.09,779.25z"/>
<path class="st4" d="M1096.31,465.18c-3-42.68-3.86-85.55-15.72-127.24c-9.27-32.59-28.52-56.29-58.64-71.02
	c-20.3-9.93-42.4-14.26-64.7-15.01c-36.89-1.23-73.95,1.73-110.53-5.59c26.95-21.57,53.39-43.63,69.42-75.56
	c12.04,4.62,15.04,16.36,21.17,25.11c14.89,21.24,33,35.08,59.5,41.55c49.91,12.18,85.23,46.82,116.82,85.41
	c4.63,5.66,6.32,12.19,5.98,19.3C1117.6,384.23,1114.75,426.18,1096.31,465.18z"/>
<path class="st4" d="M1021.99,640.45c-25.63-15.26-52.97-22.97-83.16-21.26c-12.86,0.73-24.93-4.5-36.24-13.66
	c44.49,8.74,84.12-1.32,119.87-27.39C1020.35,598.9,1018.3,619.65,1021.99,640.45z"/>
<path class="st5" d="M742.94,194.81c-0.13-3.28,1.61-4.75,4.72-4.92C747.51,192.9,747.06,195.62,742.94,194.81z"/>
</svg>
